<svg xmlns="http://www.w3.org/2000/svg" width="20" height="20" viewBox="0 0 20 20"><defs><style>.a{fill:none;}.b{fill:#fff;}</style></defs><rect class="a" width="20" height="20"/><g transform="translate(-22.6 -62.56)"><path class="b" d="M38.2,71.7H27.227A1.628,1.628,0,0,1,25.6,70.072V68.187a1.628,1.628,0,0,1,1.627-1.627H38.2a1.628,1.628,0,0,1,1.627,1.627V70.08A1.631,1.631,0,0,1,38.2,71.7ZM27.227,67.3a.889.889,0,0,0-.891.891v1.885a.889.889,0,0,0,.891.891H38.2a.9.9,0,0,0,.891-.891V68.187A.889.889,0,0,0,38.2,67.3Z" transform="translate(0)"/><path class="b" d="M687.066,180.187m-.987,0a.987.987,0,1,0,.987-.987A.987.987,0,0,0,686.08,180.187Z" transform="translate(-650.982 -111.02)"/><path class="b" d="M38.2,379.916H27.227a1.628,1.628,0,0,1-1.627-1.627v-1.878a1.628,1.628,0,0,1,1.627-1.627H38.2a1.628,1.628,0,0,1,1.627,1.627V378.3A1.629,1.629,0,0,1,38.2,379.916Zm-10.971-4.4a.889.889,0,0,0-.891.891v1.878a.889.889,0,0,0,.891.891H38.2a.9.9,0,0,0,.891-.884v-1.885a.889.889,0,0,0-.891-.891Z" transform="translate(0 -303.791)"/><path class="b" d="M687.066,488.411m-.987,0a.987.987,0,1,0,.987-.987A.987.987,0,0,0,686.08,488.411Z" transform="translate(-650.982 -414.812)"/><path class="b" d="M452.059,821.723m-.987,0a.987.987,0,1,0,.987-.987A.987.987,0,0,0,451.072,821.723Z" transform="translate(-419.353 -743.33)"/><path class="b" d="M39.45,864.48H25.968a.368.368,0,1,1,0-.736H39.45a.368.368,0,1,1,0,.736Z" transform="translate(0 -785.72)"/><path class="b" d="M494.08,706.048h.736v2.636h-.736Z" transform="translate(-461.743 -630.292)"/></g></svg>