<svg xmlns="http://www.w3.org/2000/svg" xmlns:xlink="http://www.w3.org/1999/xlink" fill="none" version="1.1" width="22" height="22" viewBox="0 0 22 22"><defs><linearGradient x1="0.5" y1="0" x2="0.5" y2="1" id="master_svg0_1_00781"><stop offset="0%" stop-color="#5D93FF" stop-opacity="1"/><stop offset="100%" stop-color="#2306FF" stop-opacity="1"/></linearGradient><linearGradient x1="0.5" y1="0" x2="0.5" y2="1" id="master_svg1_1_01086"><stop offset="0%" stop-color="#FFFFFF" stop-opacity="1"/><stop offset="100%" stop-color="#FFFFFF" stop-opacity="0"/></linearGradient></defs><g><g></g><g><g><path d="M9.68122046875,19.197177734375C4.95554046875,19.197177734375,1.07373046875,15.315377734375,1.07373046875,10.589667734375C1.07373046875,5.863987734375,4.95554046875,1.982177734375,9.68122046875,1.982177734375C14.40693046875,1.982177734375,18.28873046875,5.863987734375,18.28873046875,10.589667734375C18.28873046875,15.315377734375,14.40693046875,19.197177734375,9.68122046875,19.197177734375Z" fill="url(#master_svg0_1_00781)" fill-opacity="1"/></g><g><g><g><g><path d="M3.7108042240142822,11.410650667419434C3.7108042240142822,16.13636066741943,7.592614224014282,20.018160667419433,12.318294224014283,20.018160667419433C17.04400422401428,20.018160667419433,20.925804224014282,16.13636066741943,20.925804224014282,11.410650667419434C20.925804224014282,6.684970667419433,17.04400422401428,2.8031606674194336,12.318294224014283,2.8031606674194336C7.592614224014282,2.8031606674194336,3.7108042240142822,6.684970667419433,3.7108042240142822,11.410650667419434ZM8.014354224014284,13.604960667419434L8.014354224014284,10.313900667419434C7.676804224014282,10.145120667419434,7.423644224014282,9.723190667419434,7.423644224014282,9.301250667419435C7.423644224014282,8.879320667419433,7.676804224014282,8.541770667419435,8.014354224014284,8.373000667419433L8.014354224014284,6.938410667419434L8.942614224014282,6.938410667419434L8.942614224014282,8.288610667419434C9.364544224014281,8.541770667419435,9.617714224014282,8.879320667419433,9.617714224014282,9.301250667419435C9.617714224014282,9.723190667419434,9.364544224014281,10.060740667419434,8.942614224014282,10.313900667419434L8.942614224014282,13.604960667419434L8.014354224014284,13.604960667419434ZM11.811774224014282,13.604960667419434L11.811774224014282,12.423580667419433C11.474224224014282,12.254800667419433,11.136684224014282,11.832870667419433,11.136684224014282,11.410930667419434C11.136684224014282,10.989000667419434,11.474224224014282,10.651450667419434,11.811774224014282,10.398290667419435L11.811774224014282,6.938410667419434L12.740034224014282,6.938410667419434L12.740034224014282,10.398290667419435C13.161974224014282,10.651450667419434,13.415134224014283,10.988990667419433,13.415134224014283,11.410930667419434C13.415134224014283,11.832870667419433,13.077584224014283,12.254800667419433,12.740034224014282,12.423580667419433L12.740034224014282,13.604960667419434L11.811774224014282,13.604960667419434ZM15.778004224014282,13.604960667419434L15.778004224014282,10.313900667419434C15.356004224014283,10.145130667419433,15.187304224014282,9.723190667419434,15.102904224014281,9.385640667419434C15.102904224014281,8.963710667419434,15.440404224014282,8.541770667419435,15.778004224014282,8.373000667419433L15.778004224014282,6.938410667419434L16.706204224014282,6.938410667419434L16.706204224014282,8.288610667419434C17.128204224014283,8.541770667419435,17.381304224014283,8.879320667419433,17.381304224014283,9.301250667419435C17.381304224014283,9.723190667419434,17.128204224014283,10.145130667419433,16.706204224014282,10.313900667419434L16.706204224014282,13.604960667419434L15.778004224014282,13.604960667419434ZM11.052294224014283,14.364460667419433C10.630354224014283,14.364460667419433,9.955254224014283,14.617660667419434,9.533324224014283,14.617660667419434C9.111384224014282,14.617660667419434,8.773834224014283,14.364460667419433,8.183124224014282,14.364460667419433C7.592424224014282,14.364460667419433,6.748544224014282,14.617660667419434,6.664164224014282,14.617660667419434L6.664164224014282,13.942560667419434Q7.339254224014282,13.689360667419434,7.761194224014282,13.689360667419434C8.267514224014281,13.689360667419434,9.111384224014282,13.942560667419434,9.364544224014281,13.942560667419434C9.510264224014282,13.991160667419434,9.907574224014283,13.899960667419434,10.282954224014283,13.813760667419434C10.559764224014282,13.750160667419433,10.824634224014282,13.689360667419434,10.967904224014283,13.689360667419434C11.389844224014283,13.689360667419434,12.149324224014283,13.942560667419434,12.402484224014282,13.942560667419434C12.740034224014282,13.942560667419434,13.415134224014283,13.689360667419434,13.921404224014282,13.689360667419434C14.427804224014283,13.689360667419434,14.765304224014283,13.942560667419434,15.187304224014282,13.942560667419434C15.609204224014283,13.942560667419434,16.199904224014283,13.689360667419434,16.875004224014283,13.689360667419434C17.18360422401428,13.689360667419434,17.446104224014285,13.781560667419434,17.66260422401428,13.857460667419433C17.86050422401428,13.926960667419433,18.019904224014283,13.982860667419434,18.140804224014282,13.942560667419434L18.140804224014282,14.617660667419434Q17.128204224014283,14.364460667419433,16.875004224014283,14.364460667419433C16.537504224014285,14.364460667419433,15.778004224014282,14.617660667419434,15.356004224014283,14.617660667419434C14.934104224014282,14.617660667419434,14.259004224014282,14.364460667419433,13.921404224014282,14.364460667419433C13.583904224014283,14.364460667419433,12.824424224014281,14.617660667419434,12.402484224014282,14.617660667419434C12.064934224014282,14.617660667419434,11.558614224014281,14.364460667419433,11.052294224014283,14.364460667419433ZM15.102904224014281,15.208360667419434C15.524804224014282,15.208360667419434,16.11550422401428,14.955160667419433,16.79060422401428,14.955160667419433Q17.46570422401428,14.870760667419434,17.803304224014283,15.208360667419434L17.803304224014283,15.883460667419433Q16.79060422401428,15.630260667419433,16.537504224014285,15.630260667419433C16.199904224014283,15.630260667419433,15.440404224014282,15.883460667419433,15.018504224014283,15.883460667419433C14.596504224014282,15.883460667419433,13.921404224014282,15.630260667419433,13.583904224014283,15.630260667419433C13.246354224014283,15.630260667419433,12.486874224014283,15.883460667419433,12.064934224014282,15.883460667419433C11.727384224014282,15.883460667419433,11.221064224014281,15.630260667419433,10.714744224014282,15.630260667419433C10.292804224014283,15.630260667419433,9.617714224014282,15.883460667419433,9.195774224014283,15.883460667419433C8.773844224014283,15.883460667419433,8.520674224014282,15.630260667419433,7.929964224014282,15.630260667419433C7.339254224014282,15.630260667419433,6.495384224014282,15.883460667419433,6.411004224014283,15.883460667419433L6.411004224014283,15.208360667419434Q7.086094224014282,14.955160667419433,7.592424224014282,14.955160667419433C8.098744224014283,14.955160667419433,8.942614224014282,15.208360667419434,9.195774224014283,15.208360667419434C9.448934224014282,15.208360667419434,10.377194224014282,14.955160667419433,10.799134224014281,14.955160667419433C11.221064224014281,14.955160667419433,11.980554224014282,15.208360667419434,12.233714224014282,15.208360667419434C12.571264224014282,15.208360667419434,13.246354224014283,14.955160667419433,13.752704224014282,14.955160667419433C14.343404224014282,14.955160667419433,14.680904224014283,15.208360667419434,15.102904224014281,15.208360667419434Z" fill-rule="evenodd" fill="#C0D0FF" fill-opacity="1"/></g></g><g><path d="M20.705504224014284,14.945060667419433Q21.425804224014282,13.252760667419434,21.425804224014282,11.410650667419434Q21.425804224014282,9.568560667419433,20.705504224014284,7.876260667419434Q20.010904224014283,6.2443706674194335,18.74770422401428,4.981220667419434Q17.484604224014284,3.7180726674194338,15.852704224014282,3.0234726674194334Q14.160404224014282,2.3031606674194336,12.318294224014283,2.3031606674194336Q10.476204224014282,2.3031606674194336,8.783904224014282,3.0234726674194334Q7.152014224014282,3.7180726674194338,5.8888642240142826,4.981220667419434Q4.6257172240142825,6.2443706674194335,3.931116224014282,7.876260667419434Q3.2108042240142822,9.568560667419433,3.2108042240142822,11.410650667419434Q3.2108042240142822,13.252760667419434,3.931116224014282,14.945060667419433Q4.625716224014282,16.576960667419435,5.8888642240142826,17.840060667419433Q7.152014224014282,19.103260667419434,8.783904224014282,19.797860667419435Q10.476204224014282,20.518160667419433,12.318294224014283,20.518160667419433Q14.160404224014282,20.518160667419433,15.852704224014282,19.797860667419435Q17.484604224014284,19.103260667419434,18.74770422401428,17.840060667419433Q20.010904224014283,16.576960667419435,20.705504224014284,14.945060667419433ZM18.04060422401428,5.688330667419434Q20.425804224014282,8.073490667419435,20.425804224014282,11.410650667419434Q20.425804224014282,14.747760667419433,18.04060422401428,17.132960667419432Q15.655404224014282,19.518160667419433,12.318294224014283,19.518160667419433Q8.981134224014284,19.518160667419433,6.595974224014283,17.132960667419432Q4.210804224014282,14.747760667419433,4.210804224014282,11.410650667419434Q4.210804224014282,8.073490667419435,6.595974224014283,5.688330667419434Q8.981144224014283,3.3031606674194336,12.318294224014283,3.3031606674194336Q15.655404224014282,3.3031606674194336,18.04060422401428,5.688330667419434Z" fill-rule="evenodd" fill="url(#master_svg1_1_01086)" fill-opacity="1"/></g></g></g></g></g></svg>