<svg xmlns="http://www.w3.org/2000/svg" width="20" height="20" viewBox="0 0 20 20"><defs><style>.a,.b,.d{fill:none;}.b,.d{stroke:#fff;}.c{fill:#fff;}.d{stroke-linecap:round;}.e{stroke:none;}</style></defs><rect class="a" width="20" height="20"/><g class="b" transform="translate(2 2)"><circle class="e" cx="8" cy="8" r="8"/><circle class="a" cx="8" cy="8" r="7.5"/></g><g transform="translate(6.39 5.214)"><g transform="translate(0 0)"><rect class="c" width="0.91" height="5.46" transform="translate(0.455 0)"/><ellipse class="c" cx="0.91" cy="0.91" rx="0.91" ry="0.91" transform="translate(0 0.91)"/><line class="d" y2="5" transform="translate(0.91 0.23)"/><path class="d" d="M.516.024v5" transform="translate(3.11 0.23)"/><path class="d" d="M-.566-.022v5" transform="translate(6.91 0.23)"/></g><g transform="translate(2.73 0)"><ellipse class="c" cx="0.91" cy="0.91" rx="0.91" ry="0.91" transform="translate(0 2.73)"/></g><g transform="translate(5.46 0)"><ellipse class="c" cx="0.91" cy="0.91" rx="0.91" ry="0.91" transform="translate(0 0.91)"/></g></g><path class="d" d="M5.125,12.81a4.274,4.274,0,0,1,2.431-.07c1.368.351,1.367-.321,2.545-.256s.921.525,2.19.441c.607-.046,1.585-.609,2.312-.259" transform="translate(0.469 -0.896)"/><path class="d" d="M5.125,12.81a2.462,2.462,0,0,1,1.825-.07c1.027.351,1.026-.321,1.911-.256s.691.525,1.644.441c.456-.046,1.19-.609,1.736-.259" transform="translate(1.538 0.925)"/></svg>