<?xml version="1.0" encoding="UTF-8"?>
<svg width="40px" height="40px" viewBox="0 0 40 40" version="1.1" xmlns="http://www.w3.org/2000/svg" xmlns:xlink="http://www.w3.org/1999/xlink">
    <!-- Generator: Sketch 59 (86127) - https://sketch.com -->
    <title>guanlianwenda</title>
    <desc>Created with Sketch.</desc>
    <g id="页面-1" stroke="none" stroke-width="1" fill="none" fill-rule="evenodd">
        <g id="画板" transform="translate(-663.000000, -27.000000)" fill="#fff" fill-rule="nonzero">
            <g id="Tab-Bar备份" transform="translate(8.000000, 12.000000)">
                <g id="guanlianwenda" transform="translate(655.000000, 15.000000)">
                    <path d="M35.9437375,23.9676896 L31.9517216,23.9676896 L31.9517216,29.9557136 C31.9517216,31.014462 31.5311354,32.0298469 30.7824872,32.7784951 C30.033839,33.5271434 29.0184541,33.9477296 27.9597056,33.9477296 L14.7122006,33.9477296 L7.99962575,39.9357535 L6.00361775,33.9477296 L4.0076098,33.9477296 C2.94886132,33.9477296 1.93347642,33.5271434 1.1848282,32.7784952 C0.436179973,32.0298469 0.0155937968,31.014462 0.0155937968,29.9557136 L0.0155937968,11.9916417 C0.0155937968,10.9328932 0.436179991,9.91750835 1.18482822,9.16886013 C1.93347644,8.42021192 2.94886133,7.99962574 4.0076098,7.99962575 L11.9916417,7.99962575 L11.9916417,4.0076098 C11.9916417,2.94886132 12.4122279,1.93347642 13.1608761,1.1848282 C13.9095243,0.436179973 14.9249092,0.0155937968 15.9836577,0.0155937968 L35.9437375,0.0155937968 C37.002486,0.0155937968 38.0178709,0.436179973 38.7665191,1.1848282 C39.5151673,1.93347642 39.9357535,2.94886132 39.9357535,4.0076098 L39.9357535,19.9756737 C39.9357535,21.0344221 39.5151673,22.049807 38.7665191,22.7984552 C38.0178709,23.5471034 37.002486,23.9676896 35.9437375,23.9676896 L35.9437375,23.9676896 Z M6.00361775,11.9916417 C4.90125299,11.9916417 4.0076098,12.8852849 4.0076098,13.9876497 L4.0076098,27.9597056 C4.0076098,29.0620703 4.90125301,29.9557136 6.00361775,29.9557136 L25.9636976,29.9557136 C27.0660624,29.9557136 27.9597056,29.0620704 27.9597056,27.9597056 L27.9597056,23.9676896 L15.9836577,23.9676896 C14.9249092,23.9676896 13.9095243,23.5471034 13.1608761,22.7984552 C12.4122279,22.049807 11.9916417,21.0344221 11.9916417,19.9756737 L11.9916417,11.9916417 L6.00361775,11.9916417 Z M27.9597056,19.9756737 L27.9597056,13.9876497 C27.9597056,12.8852849 27.0660624,11.9916417 25.9636976,11.9916417 L15.9836577,11.9916417 L15.9836577,17.9796657 C15.9836577,19.0820304 16.8773009,19.9756737 17.9796657,19.9756737 L27.9597056,19.9756737 L27.9597056,19.9756737 Z M35.9437375,6.00361775 C35.9437375,4.90125301 35.0500943,4.0076098 33.9477296,4.0076098 L17.9796657,4.0076098 C16.8773009,4.0076098 15.9836577,4.90125301 15.9836577,6.00361775 L15.9836577,7.99962575 L27.9597056,7.99962575 C30.1644351,7.99962575 31.9517216,9.78691217 31.9517216,11.9916417 L31.9517216,19.9756737 L33.9477296,19.9756737 C35.0500943,19.9756737 35.9437375,19.0820304 35.9437375,17.9796657 L35.9437375,6.00361775 L35.9437375,6.00361775 Z" id="形状"></path>
                </g>
            </g>
        </g>
    </g>
</svg>