<svg xmlns="http://www.w3.org/2000/svg" width="20" height="20" viewBox="0 0 20 20"><defs><style>.a{fill:none;}.b{fill:#fff;}</style></defs><rect class="a" width="20" height="20"/><g transform="translate(1.003 2)"><path class="b" d="M17.59,11.47a.849.849,0,0,0-.843.211,2.7,2.7,0,0,1-2.178.861,2.668,2.668,0,0,1-2.178-.878.852.852,0,0,0-.843-.211.978.978,0,0,0-.3.14.861.861,0,0,0-.085.088,2.7,2.7,0,0,1-2.178.861A2.736,2.736,0,0,1,6.829,11.7a.521.521,0,0,0-.384-.255.871.871,0,0,0-.844.211,2.671,2.671,0,0,1-2.178.888,2.679,2.679,0,0,1-2.2-.9.823.823,0,0,0-.822-.22c-.32.079-.491.3-.363.5a4.134,4.134,0,0,0,3.395,1.38,5,5,0,0,0,2.786-.774,4.954,4.954,0,0,0,2.786.774,5.015,5.015,0,0,0,2.808-.782,4.886,4.886,0,0,0,2.786.782,4.146,4.146,0,0,0,3.363-1.336c.1-.193-.043-.413-.374-.5Zm0,2.4a.849.849,0,0,0-.843.211,2.7,2.7,0,0,1-2.178.861,2.67,2.67,0,0,1-2.178-.878.852.852,0,0,0-.843-.211.975.975,0,0,0-.3.14.86.86,0,0,0-.085.088,2.7,2.7,0,0,1-2.178.861A2.736,2.736,0,0,1,6.829,14.1a.521.521,0,0,0-.384-.255.871.871,0,0,0-.844.211,2.671,2.671,0,0,1-2.178.888,2.679,2.679,0,0,1-2.2-.9.823.823,0,0,0-.822-.22c-.32.079-.491.3-.363.5a4.134,4.134,0,0,0,3.395,1.38,5,5,0,0,0,2.786-.774,4.954,4.954,0,0,0,2.786.774,5.015,5.015,0,0,0,2.808-.782,4.886,4.886,0,0,0,2.786.782,4.146,4.146,0,0,0,3.363-1.336c.1-.193-.043-.422-.374-.5Zm.19-8.1L9.926.288A1.7,1.7,0,0,0,8.066.265L.225,5.484a.445.445,0,0,0-.1.7.7.7,0,0,0,.854.079l7.84-5.218a.317.317,0,0,1,.317,0l7.854,5.479a.7.7,0,0,0,.854-.068.425.425,0,0,0-.069-.692Z" transform="translate(0 0)"/><path class="b" d="M131.181,352.2c-.33,0-.6.176-.6.387v3.779c0,.088-.11.158-.247.158h-2.5c-.138,0-.247-.07-.247-.158v-2.6c0-.51-.66-.931-1.457-.931h-3c-.8,0-1.457.422-1.457.931v2.6c0,.088-.11.158-.247.158h-2.57c-.137,0-.247-.07-.247-.158v-3.779c0-.211-.275-.387-.6-.387s-.6.176-.6.387v3.779c0,.51.66.932,1.456.932h2.584c.8,0,1.456-.422,1.456-.932v-2.6c0-.088.11-.158.247-.158h3c.137,0,.247.07.247.158v2.6c0,.51.66.932,1.457.932h2.5c.8,0,1.456-.422,1.456-.932v-3.779C131.785,352.378,131.524,352.2,131.181,352.2Z" transform="translate(-115.602 -346.802)"/></g></svg>