<?xml version="1.0" encoding="UTF-8"?>
<svg width="32px" height="32px" viewBox="0 0 32 32" version="1.1" xmlns="http://www.w3.org/2000/svg" xmlns:xlink="http://www.w3.org/1999/xlink">
    <!-- Generator: Sketch 59 (86127) - https://sketch.com -->
    <title>jichushuju-bianji-beijingse</title>
    <desc>Created with Sketch.</desc>
    <g id="页面-1" stroke="none" stroke-width="1" fill="none" fill-rule="evenodd">
        <g id="数字化平台" transform="translate(-1167.000000, -17.000000)" fill="#FFFFFF" fill-rule="nonzero">
            <g id="编组-2备份-2" transform="translate(1151.000000, 17.000000)">
                <g id="jichushuju-bianji-beijingse" transform="translate(16.000000, 0.000000)">
                    <path d="M25.7734854,24.628488 C26.4557056,24.6260483 27.1089315,24.3522654 27.5890817,23.8675273 C28.0692319,23.3827892 28.3368595,22.7269195 28.3329769,22.044583 C27.9314646,20.2062944 27.0863374,18.4941906 25.871287,17.0576462 L25.7753307,16.9136858 L25.6793744,17.0576462 C24.4634872,18.4960028 23.6177548,20.20995 23.2158647,22.0501199 C23.2107754,23.4683026 24.355563,24.6223843 25.7734854,24.628488 L25.7734854,24.628488 Z M31.3906179,28.7978034 L0.608953251,28.7978034 C0.271447156,28.8018464 0,29.076658 0,29.4142493 L0,31.3835541 C0,31.7211454 0.271447156,31.995957 0.608953251,32 L31.3906179,32 C31.7269335,32 31.9997963,31.7273131 31.9997963,31.3909367 L31.9997963,29.4290145 C32.0040313,29.2639371 31.9420837,29.103972 31.8276114,28.9849687 C31.7131391,28.8659653 31.5557145,28.7978752 31.3906179,28.7959577 L31.3906179,28.7978034 Z M10.8135336,25.2320144 C11.0248555,25.4456826 11.313932,25.5642654 11.6143994,25.5605395 C11.9165507,25.5674698 12.2079861,25.4484678 12.4189559,25.2320144 L22.2194127,15.3172016 C22.4273493,15.1125117 22.5444469,14.8329141 22.5444469,14.5411073 C22.5444469,14.2493004 22.4273493,13.9697028 22.2194127,13.7650129 L12.0369761,3.50321859 L8.77261757,0.173672359 C8.53129956,-0.0578907863 8.15032911,-0.0578907863 7.9090111,0.173672359 L6.48442954,1.5892832 C6.36766511,1.70278003 6.30120752,1.85831891 6.29989826,2.02116447 C6.30376551,2.183465 6.36982689,2.33807658 6.48442954,2.45304574 L9.35758176,5.33594553 L0.965098665,13.753939 C0.537037317,14.1856456 0.537037317,14.8818038 0.965098665,15.3135103 L10.8135336,25.2320144 Z M18.069304,14.2928678 C18.0925388,14.344621 18.1110667,14.3983618 18.1246634,14.4534391 L5.05984798,14.4534391 C5.0757996,14.3530635 5.12368677,14.2605081 5.19640114,14.1895116 L11.2453368,8.09887829 L11.2859337,8.09887829 C11.4759242,7.93950813 11.7528747,7.93950813 11.9428651,8.09887829 L17.9733477,14.1692095 L18.069304,14.2928678 Z" id="形状"></path>
                </g>
            </g>
        </g>
    </g>
</svg>