<svg xmlns="http://www.w3.org/2000/svg" width="20" height="20" viewBox="0 0 20 20"><defs><style>.a{fill:none;}.b{fill:#fff;}</style></defs><rect class="a" width="20" height="20"/><g transform="translate(-1234.855 -23.03)"><g transform="translate(1165.815 -43.764)"><path class="b" d="M74.059,84.239a.5.5,0,0,1-.5-.507l.015-2.032h-.717a1.816,1.816,0,0,1-1.814-1.814V71.608a1.816,1.816,0,0,1,1.814-1.814H85.121a1.816,1.816,0,0,1,1.814,1.814v8.277A1.816,1.816,0,0,1,85.121,81.7H77.892l-3.548,2.45A.5.5,0,0,1,74.059,84.239ZM72.854,70.8a.809.809,0,0,0-.807.808v8.277a.809.809,0,0,0,.807.808h1.224a.5.5,0,0,1,.5.507l-.012,1.572,2.881-1.989a.5.5,0,0,1,.286-.089h7.386a.809.809,0,0,0,.808-.808V71.608a.809.809,0,0,0-.808-.808Z" transform="translate(0)"/></g><path class="b" d="M6.8,5.326h-.26L5.34,4.007,6.6,2.624a.55.55,0,0,0,0-.727L5.01.152a.443.443,0,0,0-.666,0,.55.55,0,0,0,0,.729L5.6,2.261,4.342,3.644a.55.55,0,0,0,0,.727l.869.956h-.7l-1.2-1.319L4.569,2.626a.55.55,0,0,0,0-.727L2.983.153a.443.443,0,0,0-.666,0,.55.55,0,0,0,0,.729L3.572,2.263,2.314,3.648a.55.55,0,0,0,0,.727l.869.956H2.491l-1.2-1.319L2.548,2.63a.55.55,0,0,0,0-.727L.962.158A.443.443,0,0,0,.3.156a.55.55,0,0,0,0,.729L1.551,2.267.295,3.649a.55.55,0,0,0,0,.727l.869.956H.47a.518.518,0,0,0,0,1.031H6.8a.521.521,0,0,0,0-1.038Z" transform="translate(1241.167 28.944)"/></g></svg>