<svg xmlns="http://www.w3.org/2000/svg" xmlns:xlink="http://www.w3.org/1999/xlink" fill="none" version="1.1" width="22" height="22" viewBox="0 0 22 22"><defs><linearGradient x1="0.5" y1="0" x2="0.5" y2="1" id="master_svg0_1_00781"><stop offset="0%" stop-color="#5D93FF" stop-opacity="1"/><stop offset="100%" stop-color="#2306FF" stop-opacity="1"/></linearGradient><linearGradient x1="0.5" y1="0" x2="0.5" y2="1" id="master_svg1_1_01086"><stop offset="0%" stop-color="#FFFFFF" stop-opacity="1"/><stop offset="100%" stop-color="#FFFFFF" stop-opacity="0"/></linearGradient></defs><g><g><g></g></g><g><g><g><g><rect x="2.38916015625" y="4.158447265625" width="15.4169921875" height="12.3369140625" rx="1" fill="url(#master_svg0_1_00781)" fill-opacity="1"/></g><g><g><g><path d="M5.198819375,5.504835778875L5.295319375,5.504835778875L7.579269375,8.182848671875L4.193556443,8.182848671875L4.193556443,6.510098671875C4.182487975,5.950384671875,4.639106375,5.493767071875,5.198819375,5.504835778875ZM16.119959375,5.504835778875L18.596959375,5.504835778875C19.156659375,5.493767871875,19.613259375,5.950385671875,19.602159375,6.510098671875L19.602159375,8.182848671875L18.395859375,8.182848671875L16.119959375,5.504835778875ZM10.917959374999999,8.182848671875L10.924779375,8.190888671875L10.924779375,8.182848671875L10.917959374999999,8.182848671875ZM10.917959374999999,8.182848671875L8.648869375,5.504835778875L6.0673593750000006,5.504835778875L8.343269375,8.182848671875L10.917959374999999,8.182848671875ZM14.271559375,8.182848671875L14.278359375,8.190888671875L14.278359375,8.182848671875L14.271559375,8.182848671875ZM14.271559375,8.182848671875L12.002419374999999,5.504835778875L9.420909375,5.504835778875L11.696819375,8.182848671875L14.271559375,8.182848671875ZM17.625059375,8.182848671875L17.631859374999998,8.190888671875L17.631859374999998,8.182848671875L17.625059375,8.182848671875ZM17.625059375,8.182848671875L15.347959375,5.504835778875L12.766419375,5.504835778875L15.042359375,8.182848671875L17.625059375,8.182848671875ZM5.198819375,17.841338671875C4.639105375,17.852438671875,4.182487675,17.395838671874998,4.193556443,16.836138671875L4.193556443,8.858378671875L19.610259375,8.858378671875L19.610259375,16.836138671875C19.621259375,17.395838671874998,19.164659375,17.852438671875,18.604959375,17.841338671875L5.198819375,17.841338671875ZM10.675159375,10.973448671875001C10.273059374999999,10.973448671875001,9.927249374999999,11.166458671874999,9.927249374999999,11.592688671874999L9.927249374999999,15.082948671875C9.927249374999999,15.501138671875,10.273059374999999,15.702238671875,10.675159375,15.702238671875C10.815609375000001,15.708538671875,10.954999375,15.675138671875,11.077259375,15.605638671875L13.916119375,13.965098671875C14.146459375,13.842468671875,14.290359375,13.602788671875,14.290359375,13.341838671875C14.290359375,13.080888671875,14.146459375,12.841218671875,13.916119375,12.718578671875001L11.077259375,11.069958671875C10.953309375,11.004928671875,10.815129375,10.971758671875001,10.675159375,10.973448671875001Z" fill-rule="evenodd" fill="#C0D0FF" fill-opacity="1"/></g></g><g><rect x="4.693359375" y="6.004638671875" width="14.4169921875" height="11.3369140625" rx="0.5" stroke="url(#master_svg1_1_01086)" fill-opacity="0" fill="none" stroke-width="1"/></g></g></g></g></g></g></svg>