<svg xmlns="http://www.w3.org/2000/svg" width="20" height="20" viewBox="0 0 20 20"><defs><style>.a{fill:none;}.b{fill:#fff;}</style></defs><g transform="translate(0 0)"><rect class="a" width="20" height="20" transform="translate(0 0)"/><path class="b" d="M49.809,69.574,42.2,63.562a1.945,1.945,0,0,0-2.335,0l-7.6,6.013a.6.6,0,0,0,.735.942l.235-.194V77.59a2.022,2.022,0,0,0,2.039,1.8h12a1.6,1.6,0,0,0,1.561-1.8V70.348l.219.168a.608.608,0,0,0,.377.129.6.6,0,0,0,.377-1.071ZM40.435,78.19V74.861c0-.165.3-.248.6-.248s.6.084.6.248v3.326l-1.2,0Zm7.2-.6c0,.4-.11.6-.361.6H42.848c0-.01-.013-.016-.013-.026v-3.3c0-.7-.561-1.448-1.8-1.448s-1.8.752-1.8,1.448v3.3c0,.01.016.016.016.026H35.277c-.377,0-.839-.326-.839-.6V69.371L40.6,64.5a.743.743,0,0,1,.842,0l6.19,4.9v8.19Z" transform="translate(-31.037 -61.172)"/></g></svg>