<svg xmlns="http://www.w3.org/2000/svg" xmlns:xlink="http://www.w3.org/1999/xlink" fill="none" version="1.1" width="22" height="22" viewBox="0 0 22 22"><defs><linearGradient x1="0.5" y1="0" x2="0.5" y2="1" id="master_svg0_1_00781"><stop offset="0%" stop-color="#5D93FF" stop-opacity="1"/><stop offset="100%" stop-color="#2306FF" stop-opacity="1"/></linearGradient><linearGradient x1="0.5" y1="0" x2="0.5" y2="1" id="master_svg1_1_01086"><stop offset="0%" stop-color="#FFFFFF" stop-opacity="1"/><stop offset="100%" stop-color="#FFFFFF" stop-opacity="0"/></linearGradient></defs><g><g></g><g><g><path d="M18.47235625,10.374429921875C18.43545625,10.287679921875,18.39425625,10.226959921875,18.36605625,10.190099921875C18.32925625,10.133709921875,18.27935625,10.070819921875,18.23815625,10.027459921875L15.58385625,7.373129921875C15.57515625,7.362289921875,15.57085625,7.349279921875,15.56215625,7.340599921875L15.56435625,7.338429921875L15.55345625,7.327589921875L15.55125625,7.325419921875L10.60263625,2.391935921875C10.34457625,2.133876921875,10.00411625,1.992919921875,9.63979625,1.992919921875C9.27547625,1.992919921875,8.93284625,2.133876921875,8.67695625,2.391935921875L1.04577225,10.023119921875C0.98071525,10.088169921875,0.93734425,10.151059921875,0.90698425,10.198769921875C0.87011925,10.252989921875,0.82891625,10.326719921875,0.80723035,10.376599921875C0.75084765,10.508879921875,0.72265625,10.649829921875,0.72265625,10.792959921875C0.72265625,11.343779921875,1.14552625,11.805679921875,1.68549925,11.866399921875C1.72236525,11.870739921875,1.75922625,11.875079921875,1.79826625,11.875079921875L2.25366625,11.875079921875L2.25366625,18.233319921875C2.25366625,18.829619921875,2.73725625,19.313219921875,3.33360625,19.313219921875L7.38448625,19.313219921875C7.98084625,19.313219921875,8.46443625,18.829619921875,8.46443625,18.233319921875L8.46443625,12.269719921875C8.46443625,12.050719921875,8.642256249999999,11.875079921875,8.85911625,11.875079921875L10.42264625,11.875079921875C10.64167625,11.875079921875,10.81735625,12.050719921875,10.81735625,12.269719921875L10.81735625,18.233319921875C10.81735625,18.829619921875,11.30095625,19.313219921875,11.89725625,19.313219921875L15.94815625,19.313219921875C16.54445625,19.313219921875,17.02805625,18.829619921875,17.02805625,18.233319921875L17.02805625,11.875069921875L17.48995625,11.875069921875C18.07985625,11.868569921875,18.55915625,11.382809921875,18.55915625,10.795129921875C18.55695625,10.651999921875,18.52875625,10.511039921875,18.47235625,10.374429921875Z" fill="url(#master_svg0_1_00781)" fill-opacity="1"/></g><g><path d="M21.19110625,11.068277578125C21.15420625,10.981527578125,21.11300625,10.920807578125,21.08480625,10.883947578125C21.04800625,10.827557578125,20.99810625,10.764667578125,20.95690625,10.721307578125L18.30260625,8.066977578125C18.29390625,8.056137578125,18.28960625,8.043127578124999,18.28090625,8.034447578125L18.28310625,8.032277578125L18.27220625,8.021437578125L18.27000625,8.019267578125L13.32138625,3.085783578125C13.06332625,2.827724578125,12.72286625,2.686767578125,12.35854625,2.686767578125C11.99422625,2.686767578125,11.65159625,2.827724578125,11.39570625,3.085783578125L3.76452225,10.716967578125C3.69946525,10.782017578125,3.6560942499999998,10.844907578125,3.62573425,10.892617578125C3.58886925,10.946837578125,3.54766625,11.020567578125,3.52598035,11.070447578125C3.46959765,11.202727578125,3.44140625,11.343677578125,3.44140625,11.486807578125C3.44140625,12.037627578125,3.86427625,12.499527578125,4.40424925,12.560247578125C4.44111525,12.564587578125,4.47797625,12.568927578125,4.51701625,12.568927578125L4.97241625,12.568927578125L4.97241625,18.927167578125C4.97241625,19.523467578125,5.45600625,20.007067578125,6.05235625,20.007067578125L10.10323625,20.007067578125C10.699596249999999,20.007067578125,11.18318625,19.523467578125,11.18318625,18.927167578125L11.18318625,12.963567578125C11.18318625,12.744567578125,11.361006249999999,12.568927578125,11.57786625,12.568927578125L13.14139625,12.568927578125C13.36042625,12.568927578125,13.53610625,12.744567578125,13.53610625,12.963567578125L13.53610625,18.927167578125C13.53610625,19.523467578125,14.01970625,20.007067578125,14.61600625,20.007067578125L18.66690625,20.007067578125C19.26320625,20.007067578125,19.74680625,19.523467578125,19.74680625,18.927167578125L19.74680625,12.568917578125L20.20870625,12.568917578125C20.79860625,12.562417578125,21.27790625,12.076657578125,21.27790625,11.488977578125C21.27570625,11.345847578125,21.24750625,11.204887578125,21.19110625,11.068277578125Z" fill="#C0D0FF" fill-opacity="1" style="mix-blend-mode:lighten"/><path d="M21.32000625,12.598467578125Q21.77790625,12.135497578125,21.77790625,11.488977578125L21.77780625,11.481397578125Q21.77300625,11.167677578125,21.65330625,10.877537578125Q21.58730625,10.722067578125,21.49360625,10.595647578125Q21.41410625,10.476587578124999,21.31940625,10.376917578125L21.31500625,10.372277578125L18.98230625,8.039607578125L18.98990625,8.032027578125L18.62580625,7.667897578125L18.623406250000002,7.665557578125L13.67440625,2.731687678125Q13.12947625,2.186767578125,12.35854625,2.186767578125Q11.58302625,2.186767578125,11.040666250000001,2.733724378125L3.41096915,10.363417578125Q3.30036925,10.474007578125,3.20803625,10.617717578125Q3.12232425,10.744857578125,3.06744325,10.871087578125Q2.94140625,11.166757578125,2.94140625,11.486807578125Q2.94140625,12.090527578125,3.34916045,12.542317578125Q3.75340325,12.990167578125,4.34837725,13.057067578125Q4.41810625,13.065367578125,4.47241625,13.067867578125L4.47241625,18.927167578125Q4.47241625,19.581567578125,4.93519625,20.044267578125Q5.39798625,20.507067578125,6.05235625,20.507067578125L10.10323625,20.507067578125Q10.75760625,20.507067578125,11.22039625,20.044267578125Q11.68318625,19.581567578125,11.68318625,18.927167578125L11.68318625,13.068967578125L13.03607625,13.068967578125L13.03607625,18.927167578125Q13.03607625,19.581567578125,13.49890625,20.044267578125Q13.96160625,20.507067578125,14.61600625,20.507067578125L18.66690625,20.507067578125Q19.32130625,20.507067578125,19.78410625,20.044267578125Q20.24680625,19.581567578125,20.24680625,18.927167578125L20.24680625,13.068067578125Q20.87530625,13.048167578125,21.32000625,12.598467578125ZM17.57570625,8.033077578124999L12.96837625,3.439879578125Q12.71526625,3.186767578125,12.35854625,3.186767578125Q11.99970625,3.186767578125,11.75074625,3.437842578125L4.11807625,11.070517578125Q4.08261525,11.105977578125,4.04756825,11.161057578125L4.04347525,11.167487578125L4.03918925,11.173787578125Q4.00334325,11.226497578125,3.98451725,11.269797578125Q3.94140625,11.370977578125,3.94140625,11.486807578125Q3.94140625,11.705997578125,4.0915152500000005,11.872307578125Q4.24180625,12.038827578125,4.46012625,12.063377578125Q4.50728625,12.068917578125,4.51701625,12.068927578125L5.47241625,12.068927578125L5.47241625,18.927167578125Q5.47241625,19.167267578125,5.64230625,19.337167578125Q5.8121962499999995,19.507067578125,6.05235625,19.507067578125L10.10323625,19.507067578125Q10.34339625,19.507067578125,10.51329625,19.337167578125Q10.68318625,19.167367578125,10.68318625,18.927167578125L10.68318625,12.963567578125Q10.68318625,12.592047578125,10.94632625,12.329907578125Q11.20829625,12.068927578125,11.57786625,12.068927578125L13.14139625,12.068927578125Q13.51280625,12.068927578125,13.77440625,12.330577578125Q14.03610625,12.592227578125,14.03610625,12.963567578125L14.03610625,18.927167578125Q14.03610625,19.167267578125,14.20600625,19.337167578125Q14.37590625,19.507067578125,14.61600625,19.507067578125L18.66690625,19.507067578125Q18.90710625,19.507067578125,19.07690625,19.337167578125Q19.24680625,19.167267578125,19.24680625,18.927167578125L19.24680625,12.068917578125L20.20870625,12.068917578125Q20.43980625,12.066347578125,20.60900625,11.895307578125Q20.77650625,11.725897578125,20.77780625,11.492707578125Q20.77530625,11.371407578125,20.72890625,11.259017578125Q20.71220625,11.219757578125,20.68770625,11.187667578125L20.67650625,11.173007578125L20.66640625,11.157567578125Q20.63410625,11.108297578125,20.59810625,11.069607578125L17.92940625,8.400947578124999L17.91210625,8.379317578125Q17.90210625,8.366757578125,17.89240625,8.353077578125L17.57410625,8.034677578124999L17.57570625,8.033077578124999Z" fill-rule="evenodd" fill="url(#master_svg1_1_01086)" fill-opacity="1"/></g></g></g></svg>