<svg xmlns="http://www.w3.org/2000/svg" xmlns:xlink="http://www.w3.org/1999/xlink" fill="none" version="1.1" width="22" height="22" viewBox="0 0 22 22"><defs><linearGradient x1="0.5" y1="0" x2="0.5" y2="1" id="master_svg0_1_00781"><stop offset="0%" stop-color="#5D93FF" stop-opacity="1"/><stop offset="100%" stop-color="#2306FF" stop-opacity="1"/></linearGradient><linearGradient x1="0.5" y1="0" x2="0.5" y2="1" id="master_svg1_1_03154"><stop offset="0%" stop-color="#FFFFFF" stop-opacity="1"/><stop offset="99.5237946510315%" stop-color="#FFFFFF" stop-opacity="0"/></linearGradient></defs><g><g><g></g></g><g><g><g><g><path d="M10.270710000000001,2.1039399999999997L9.32012,1L8.36638,2.10079C8.05441,2.46212,6.36436,4.4452300000000005,4.96526,6.82958C4.4581599999999995,7.68098,4.0188,8.57094,3.651245,9.49123C3.256304,10.50799,2.99791142,11.5185,3.0000125214,12.4417C3.00316354,13.0268,3.0903447,13.5908,3.238448,14.1276C3.459311,14.932,3.835798,15.6854,4.34659,16.344900000000003C5.50411,17.8428,7.29709,18.8112,9.30961,18.8112C12.78635,18.8112,15.6161,15.951,15.6161,12.4354C15.6161,8.41985,10.81795,2.7383699999999997,10.270710000000001,2.1039399999999997Z" fill="url(#master_svg0_1_00781)" fill-opacity="1"/></g></g></g><g><g><g><path d="M11.512991272563934,2.615966796875L12.463581272563935,3.7199067968749997C13.010821272563934,4.354336796875,17.808971272563934,10.035816796875,17.808971272563934,14.051366796875C17.808971272563934,17.566966796875,14.979221272563935,20.427166796875,11.502481272563934,20.427166796875C9.489961272563935,20.427166796875,7.696981272563934,19.458766796875,6.539461272563934,17.960866796875003C6.028669272563935,17.301366796875,5.652182272563934,16.547966796875002,5.431319272563934,15.743566796875C5.2832159725639345,15.206766796875,5.196034812563934,14.642766796875,5.192883793963935,14.057666796875C5.190782692563935,13.134466796875,5.449175272563934,12.123956796875,5.844116272563935,11.107196796875C6.211671272563934,10.186906796875,6.651031272563934,9.296946796875,7.158131272563934,8.445546796875C8.557231272563934,6.0611967968750005,10.247281272563935,4.0780867968750005,10.559251272563934,3.716756796875L11.512991272563934,2.615966796875ZM13.769151272563935,11.195266796875L14.218341272563935,11.195266796875C14.442931272563934,11.195266796875,14.645071272563934,11.397396796875,14.645071272563934,11.621996796875L14.645071272563934,11.644456796875C14.645071272563934,11.869046796875,14.465391272563934,12.071176796875,14.218341272563935,12.071176796875L13.769151272563935,12.071176796875C13.589481272563935,12.475446796875,13.207671272563934,12.744966796875,12.736021272563935,12.744966796875C12.264371272563935,12.744966796875,11.882571272563935,12.475446796875,11.702891272563935,12.071176796875L8.783171272563933,12.071176796875C8.558581272563934,12.071176796875,8.356441272563934,11.891506796875,8.356441272563934,11.644456796875L8.356441272563934,11.621996796875C8.356441272563934,11.397396796875,8.536121272563934,11.195266796875,8.783171272563933,11.195266796875L11.702891272563935,11.195266796875C11.882571272563935,10.790996796875,12.264371272563935,10.521486796875,12.736021272563935,10.521486796875C13.207671272563934,10.521486796875,13.589481272563935,10.790996796875,13.769151272563935,11.195266796875ZM11.298621272563935,14.564166796875L14.218341272563935,14.564166796875C14.442931272563934,14.564166796875,14.645071272563934,14.766266796875,14.645071272563934,14.990866796875L14.645071272563934,15.013366796875C14.645071272563934,15.237966796875,14.465391272563934,15.440066796875,14.218341272563935,15.440066796875L11.298621272563935,15.440066796875C11.118951272563933,15.844366796875,10.737141272563935,16.113866796875,10.265491272563935,16.113866796875C9.793841272563935,16.113866796875,9.412031272563933,15.844366796875,9.232361272563935,15.440066796875L8.783171272563933,15.440066796875C8.558581272563934,15.440066796875,8.356441272563934,15.260366796875,8.356441272563934,15.013366796875L8.356441272563934,14.990866796875C8.356441272563934,14.766266796875,8.536121272563934,14.564166796875,8.783171272563933,14.564166796875L9.232361272563935,14.564166796875C9.412031272563933,14.159866796875,9.793841272563935,13.890366796875,10.265491272563935,13.890366796875C10.737141272563935,13.890366796875,11.118951272563933,14.159866796875,11.298621272563935,14.564166796875Z" fill-rule="evenodd" fill="#C0D0FF" fill-opacity="1"/></g><g><path d="M16.314971272563934,18.909266796875Q18.308971272563934,16.893466796875,18.308971272563934,14.051366796875Q18.308971272563934,11.367936796875,15.763871272563934,7.350156796875Q14.405291272563934,5.205456796875,12.842191272563934,3.393328796875L11.514151272563934,1.851051796875L10.181351272563933,3.389348796875Q8.195941272563935,5.688956796875,6.726891272563934,8.192506796875Q5.946573272563934,9.502596796875,5.379780272563934,10.921746796875Q4.689788272563934,12.698066796875,4.6928852725639345,14.058866796875Q4.697762272563934,14.964866796875,4.949331272563934,15.876566796875Q5.309889272563934,17.189766796875,6.144151272563934,18.267066796875Q7.098851272563934,19.502466796875,8.473751272563934,20.201466796875Q9.901271272563935,20.927166796875,11.502481272563934,20.927166796875Q14.318851272563935,20.927166796875,16.314971272563934,18.909266796875ZM14.919081272563934,7.885276796875Q17.308971272563934,11.658016796875,17.308971272563934,14.051366796875Q17.308971272563934,16.482466796875002,15.603971272563934,18.205966796875Q13.901451272563934,19.927166796875,11.502481272563934,19.927166796875Q10.140881272563934,19.927166796875,8.926941272563933,19.309966796875Q7.752561272563934,18.712966796875,6.934781272563934,17.654766796875002Q6.2217712725639345,16.734066796875,5.913307272563935,15.610566796875Q5.697033272563934,14.826766796875,5.692882272563934,14.056566796875Q5.690215272563934,12.884366796875,6.308451272563934,11.292646796875Q6.846031272563934,9.946646796875001,7.589371272563934,8.698596796875Q9.012351272563935,6.273556796875,10.937141272563935,4.044166796875L11.511821272563935,3.380880796875L12.084971272563934,4.046486796875Q13.599951272563935,5.802826796874999,14.919081272563934,7.885276796875Z" fill-rule="evenodd" fill="url(#master_svg1_1_03154)" fill-opacity="1"/></g></g></g></g></g></svg>