<svg xmlns="http://www.w3.org/2000/svg" xmlns:xlink="http://www.w3.org/1999/xlink" fill="none" version="1.1" width="22" height="22" viewBox="0 0 22 22"><defs><linearGradient x1="0.5" y1="0" x2="0.5" y2="1" id="master_svg0_1_00781"><stop offset="0%" stop-color="#5D93FF" stop-opacity="1"/><stop offset="100%" stop-color="#2306FF" stop-opacity="1"/></linearGradient><linearGradient x1="0.5" y1="0" x2="0.5" y2="1" id="master_svg1_1_03154"><stop offset="0%" stop-color="#FFFFFF" stop-opacity="1"/><stop offset="99.5237946510315%" stop-color="#FFFFFF" stop-opacity="0"/></linearGradient></defs><g><g></g><g><g><g><path d="M10.577838906250001,2.4879732031249997L9.62724890625,1.384033203125L8.67350890625,2.484823203125C8.36153890625,2.846153203125,6.67148890625,4.8292632031250005,5.27238890625,7.213613203125C4.7652889062499995,8.065013203125,4.32592890625,8.954973203125,3.95837390625,9.875263203125C3.56343290625,10.892023203125,3.30504032625,11.902533203125,3.30714142765,12.825733203125C3.31029244625,13.410833203125,3.39747360625,13.974833203125,3.54557690625,14.511633203125C3.76643990625,15.316033203125,4.1429269062500005,16.069433203125,4.65371890625,16.728933203125003C5.81123890625,18.226833203125,7.60421890625,19.195233203125,9.61673890625,19.195233203125C13.09347890625,19.195233203125,15.92322890625,16.335033203125,15.92322890625,12.819433203125C15.92322890625,8.803883203125,11.12507890625,3.1224032031249997,10.577838906250001,2.4879732031249997Z" fill="url(#master_svg0_1_00781)" fill-opacity="1"/></g></g><g><g><path d="M13.347370156250001,3.4879732031249997L12.39678015625,2.384033203125L11.44304015625,3.484823203125C11.13107015625,3.846153203125,9.44102015625,5.8292632031250005,8.04192015625,8.213613203125C7.5348201562499995,9.065013203125,7.09546015625,9.954973203125,6.72790515625,10.875263203125C6.33296415625,11.892023203125,6.07457157625,12.902533203125,6.07667267765,13.825733203125C6.07982369625,14.410833203125,6.16700485625,14.974833203125,6.31510815625,15.511633203125C6.53597115625,16.316033203125002,6.9124581562500005,17.069433203125,7.42325015625,17.728933203125003C8.58077015625,19.226833203125,10.37375015625,20.195233203125,12.38627015625,20.195233203125C15.86301015625,20.195233203125,18.69276015625,17.335033203125,18.69276015625,13.819433203125C18.69276015625,9.803883203125,13.89461015625,4.122403203125,13.347370156250001,3.4879732031249997ZM15.30526015625,17.579833203125C14.33052015625,18.266733203125,13.165650156249999,18.580833203125,12.19721015625,18.423233203125C11.94463015625,18.381733203125002,11.69965015625,18.302733203125,11.47035015625,18.189033203125C12.22054015625,17.941433203125,12.93016015625,17.584633203125,13.576350156250001,17.130233203125C15.03742015625,16.101933203125,16.107760156250002,14.629333203125,16.40396015625,13.148233203125C16.75796015625,13.388833203125,17.151860156250002,13.968633203125,17.14976015625,14.551533203125C17.147660156249998,15.653433203125,16.39866015625,16.810933203125,15.30526015625,17.579833203125Z" fill="#C0D0FF" fill-opacity="1"/></g></g><g><g><path d="M17.19876015625,19.0979875Q19.19276015625,17.0821875,19.19276015625,14.2400875Q19.19276015625,11.5566575,16.647660156249998,7.5388775Q15.28908015625,5.3941775,13.72598015625,3.5820495L12.39794015625,2.0397724999999998L11.06514015625,3.5780695Q9.079730156250001,5.8776775,7.61068015625,8.3812275Q6.83036215625,9.6913175,6.26356915625,11.1104675Q5.57357715625,12.8867875,5.57667415625,14.2475875Q5.58155115625,15.1535875,5.83312015625,16.0652875Q6.19367815625,17.3784875,7.02794015625,18.4557875Q7.98264015625,19.6911875,9.35754015625,20.3901875Q10.785060156250001,21.1158875,12.38627015625,21.1158875Q15.20264015625,21.1158875,17.19876015625,19.0979875ZM15.80287015625,8.0739975Q18.19276015625,11.8467375,18.19276015625,14.2400875Q18.19276015625,16.671187500000002,16.487760156249998,18.3946875Q14.78524015625,20.1158875,12.38627015625,20.1158875Q11.02467015625,20.1158875,9.81073015625,19.4986875Q8.63635015625,18.9016875,7.81857015625,17.843487500000002Q7.10556015625,16.9227875,6.79709615625,15.7992875Q6.58082215625,15.0154875,6.57667115625,14.2452875Q6.57400415625,13.0730875,7.19224015625,11.4813675Q7.72982015625,10.135367500000001,8.47316015625,8.8873175Q9.89614015625,6.4622775,11.82093015625,4.2328875L12.395610156250001,3.5696015L12.96876015625,4.2352075Q14.48374015625,5.991547499999999,15.80287015625,8.0739975Z" fill-rule="evenodd" fill="url(#master_svg1_1_03154)" fill-opacity="1"/></g></g></g></g></svg>