<svg xmlns="http://www.w3.org/2000/svg" xmlns:xlink="http://www.w3.org/1999/xlink" fill="none" version="1.1" width="22" height="22" viewBox="0 0 22 22"><defs><linearGradient x1="0.5" y1="0" x2="0.5" y2="1" id="master_svg0_1_00781"><stop offset="0%" stop-color="#5D93FF" stop-opacity="1"/><stop offset="100%" stop-color="#2306FF" stop-opacity="1"/></linearGradient><linearGradient x1="0.5" y1="0" x2="0.5" y2="1" id="master_svg1_1_01086"><stop offset="0%" stop-color="#FFFFFF" stop-opacity="1"/><stop offset="100%" stop-color="#FFFFFF" stop-opacity="0"/></linearGradient></defs><g><g><g></g></g><g><g><path d="M16.1596640625,16.28930859375L3.8403340625,16.28930859375C2.8560450625,16.28930859375,1.9931640625,15.52530859375,1.9931640625,14.65140859375L1.9931640625,3.91680859375C1.9931640625,3.04290359375,2.8556300625,2.27880859375,3.8404840625,2.27880859375L16.159764062500003,2.27880859375C17.1440640625,2.27880859375,18.0071640625,3.04290359375,18.0071640625,3.91680859375L18.0073640625,14.65140859375C18.0073640625,15.52530859375,17.144564062500002,16.28930859375,16.1596640625,16.28930859375Z" fill="url(#master_svg0_1_00781)" fill-opacity="1"/></g><g><path d="M19.7844640625,16.17210859375Q20.5071640625,15.53150859375,20.5071640625,14.65130859375L20.5071640625,5.91680859375Q20.5071640625,5.03660059375,19.7841640625,4.39590159375Q19.0879640625,3.77880859375,18.159764062500003,3.77880859375L5.8404840625,3.77880859375Q4.9120120625,3.77880859375,4.2158330625,4.39593659375Q3.4931640625,5.03654659375,3.4931640625,5.91680859375L3.4931640625,14.65130859375Q3.4931640625,15.53150859375,4.2160860625,16.17220859375Q4.9123730625,16.78930859375,5.8404840625,16.78930859375L18.159764062500003,16.78930859375Q19.088264062500002,16.78930859375,19.7844640625,16.17210859375ZM19.5071640625,5.91680859375L19.5071640625,14.65130859375Q19.5071640625,15.08160859375,19.1211640625,15.42380859375Q18.7088640625,15.78930859375,18.159764062500003,15.78930859375L5.8404840625,15.78930859375Q5.2917340625,15.78930859375,4.8793520625,15.42380859375Q4.4931640625,15.08150859375,4.4931640625,14.65130859375L4.4931640625,5.91680859375Q4.4931640625,5.48642859375,4.8791760625,5.14425159375Q5.2914340625000005,4.77880859375,5.8404840625,4.77880859375L18.159764062500003,4.77880859375Q18.708564062500002,4.77880859375,19.1209640625,5.1442865937499995Q19.5071640625,5.48654859375,19.5071640625,5.91680859375ZM6.8342740625000005,19.73940859375Q7.3157440625,20.22080859375,7.9966540625,20.22080859375L16.0036640625,20.22080859375Q16.6845640625,20.22080859375,17.1660640625,19.73940859375Q17.6474640625,19.257908593750003,17.6474640625,18.57700859375Q17.6474640625,17.89610859375,17.1660640625,17.41460859375Q16.6845640625,16.93310859375,16.0036640625,16.93310859375L7.9966540625,16.93310859375Q7.3157540625,16.93310859375,6.8342740625000005,17.41460859375Q6.352804062500001,17.89610859375,6.352804062500001,18.57700859375Q6.352804062500001,19.257908593750003,6.8342740625000005,19.73940859375ZM16.0036640625,19.22080859375L7.9966540625,19.22080859375Q7.729964062500001,19.22080859375,7.541384062500001,19.032308593750003Q7.352804062500001,18.84370859375,7.352804062500001,18.57700859375Q7.352804062500001,18.31030859375,7.541384062500001,18.12170859375Q7.729964062500001,17.93310859375,7.9966540625,17.93310859375L16.0036640625,17.93310859375Q16.2703640625,17.93310859375,16.4588640625,18.12170859375Q16.6474640625,18.31030859375,16.6474640625,18.57700859375Q16.6474640625,18.84370859375,16.4588640625,19.032308593750003Q16.2703640625,19.22080859375,16.0036640625,19.22080859375Z" fill-rule="evenodd" fill="url(#master_svg1_1_01086)" fill-opacity="1"/></g><g><path d="M18.159764062500003,16.28930859375L5.8404840625,16.28930859375C4.8562020624999995,16.28930859375,3.9931640625,15.52520859375,3.9931640625,14.65130859375L3.9931640625,5.91680859375C3.9931640625,5.04290359375,4.8556300624999995,4.27880859375,5.8404840625,4.27880859375L18.159764062500003,4.27880859375C19.1440640625,4.27880859375,20.0071640625,5.04290359375,20.0071640625,5.91680859375L20.0071640625,14.65130859375C20.0071640625,15.52520859375,19.1446640625,16.28930859375,18.159764062500003,16.28930859375ZM10.3198240625,14.22176859375C10.5657540625,14.22176859375,10.9352140625,13.97526859375,10.9352140625,13.60579859375L10.9352140625,9.91000859375C10.9352140625,9.54053859375,10.6892840625,9.294038593749999,10.3198240625,9.294038593749999C9.949784062500001,9.294038593749999,9.7038540625,9.54053859375,9.7038540625,9.91000859375L9.7038540625,13.60579859375C9.7038540625,13.97525859375,9.949784062500001,14.22175859375,10.3198240625,14.22176859375ZM13.0296140625,14.22176859375C13.3990740625,14.22176859375,13.6455840625,13.97526859375,13.6455840625,13.60579859375L13.6455840625,11.75789859375C13.6455840625,11.38843859375,13.3996540625,11.14193859375,13.0296140625,11.14193859375C12.6601540625,11.14193859375,12.4136440625,11.38786859375,12.4136440625,11.75789859375L12.4136440625,13.60522859375C12.4136440625,13.97526859375,12.6595740625,14.22176859375,13.0296140625,14.22176859375ZM15.7393640625,14.22176859375C16.109464062500003,14.22176859375,16.3553640625,13.97526859375,16.3553640625,13.60579859375L16.3553640625,12.98925859375C16.3553640625,12.61979859375,16.109464062500003,12.37329859375,15.7393640625,12.37329859375C15.3699640625,12.37329859375,15.1239640625,12.61922859375,15.1239640625,12.98925859375L15.1239640625,13.60522859375C15.1239640625,13.97468859375,15.3699640625,14.22118859375,15.7393640625,14.22118859375L15.7393640625,14.22176859375ZM7.6094640625,14.22176859375C7.855384062500001,14.22176859375,8.2254240625,13.97526859375,8.2254240625,13.60579859375L8.2254240625,8.06210859375C8.2254240625,7.69263859375,7.979494062500001,7.44613859375,7.6094640625,7.44613859375C7.2399940625,7.44613859375,6.9934940625,7.69263859375,6.9934940625,8.06210859375L6.9934940625,13.60579859375C6.9934940625,13.97525859375,7.2394240624999995,14.22175859375,7.6094640625,14.22176859375ZM7.9966540625,17.43310859375L16.0036640625,17.43310859375C16.635364062500003,17.43310859375,17.1474640625,17.94520859375,17.1474640625,18.57700859375C17.1474640625,19.20870859375,16.635364062500003,19.72080859375,16.0036640625,19.72080859375L7.9966540625,19.72080859375C7.3649240625,19.72080859375,6.852804062500001,19.20870859375,6.852804062500001,18.57700859375C6.852804062500001,17.94520859375,7.3649240625,17.43310859375,7.9966540625,17.43310859375Z" fill="#C0D0FF" fill-opacity="1"/></g></g></g></svg>