<svg xmlns="http://www.w3.org/2000/svg" xmlns:xlink="http://www.w3.org/1999/xlink" fill="none" version="1.1" width="22" height="22" viewBox="0 0 22 22"><defs><linearGradient x1="0.5" y1="0" x2="0.5" y2="1" id="master_svg0_1_00781"><stop offset="0%" stop-color="#5D93FF" stop-opacity="1"/><stop offset="100%" stop-color="#2306FF" stop-opacity="1"/></linearGradient><linearGradient x1="0.5" y1="0" x2="0.5" y2="1" id="master_svg1_1_01086"><stop offset="0%" stop-color="#FFFFFF" stop-opacity="1"/><stop offset="100%" stop-color="#FFFFFF" stop-opacity="0"/></linearGradient></defs><g><g></g><g><g><path d="M15.9698078125,2.42480482515C16.655407812500002,2.4266090075,17.2129078125,2.9823046875,17.214707812500002,3.6697046875L17.214707812500002,7.4062146875C17.2129078125,8.0936246875,16.657207812499998,8.6493146875,15.9698078125,8.651124687500001L3.5154078125,8.651124687500001C2.8280078125,8.6493146875,2.2723119925,8.0936246875,2.2705078125,7.4062146875L2.2705078125,3.6697046875C2.2723119925,2.9841086875,2.8280078125,2.4266088675,3.5154078125,2.4248046875L15.9698078125,2.42480482515ZM15.9698078125,10.5241746875C16.655407812500002,10.5259746875,17.2129078125,11.0816746875,17.214707812500002,11.7690746875L17.214707812500002,15.5056046875C17.2129078125,16.1930046875,16.657207812499998,16.748704687500002,15.9698078125,16.750504687499998L3.5154078125,16.750504687499998C2.8280078125,16.748704687500002,2.2723119925,16.1930046875,2.2705078125,15.5056046875L2.2705078125,11.7690746875C2.2723119925,11.0834746875,2.8280078125,10.5259746875,3.5154078125,10.5241746875L15.9698078125,10.5241746875Z" fill="url(#master_svg0_1_00781)" fill-opacity="1"/></g><g><g><g><path d="M16.42775344619751,11.765874092884063Q16.914953446197508,12.213324092884063,17.79715344619751,12.464104092884064Q18.85805344619751,12.763604092884064,19.54005344619751,12.657154092884063Q19.53285344619751,13.465444092884063,19.29105344619751,14.894354092884063C19.03305344619751,16.418954092884064,18.231953446197508,17.297554092884063,17.60955344619751,17.633154092884062C17.01055344619751,17.957954092884066,16.541453446197508,17.99035409288406,16.444053446197508,17.993954092884064L16.40795344619751,17.993954092884064C16.31235344619751,17.99035409288406,15.84325344619751,17.956154092884063,15.24245344619751,17.633154092884062C14.61995344619751,17.297554092884063,13.817093446197509,16.418954092884064,13.56090344619751,14.894354092884063C13.33898344619751,13.580914092884063,13.31553344619751,12.790664092884064,13.31192344619751,12.673394092884063L13.31192344619751,12.657154092884063Q13.99395344619751,12.765404092884063,15.054753446197509,12.465914092884065Q15.94245344619751,12.215124092884064,16.42775344619751,11.765874092884063ZM18.20675344619751,13.535804092884064C18.15625344619751,13.490694092884064,18.08945344619751,13.467244092884064,18.02265344619751,13.470854092884064C17.955953446197512,13.474464092884064,17.89275344619751,13.505134092884063,17.847653446197512,13.555654092884064L16.274453446197512,15.321954092884063L15.51125344619751,14.538954092884063C15.46075344619751,14.486654092884065,15.388553446197509,14.457754092884064,15.31455344619751,14.463154092884064C15.24065344619751,14.468554092884064,15.17385344619751,14.504654092884063,15.13055344619751,14.564154092884063L15.09445344619751,14.612954092884063C15.01505344619751,14.722954092884065,15.02595344619751,14.874554092884063,15.11975344619751,14.970154092884064L16.11565344619751,15.993154092884064C16.166153446197512,16.045454092884064,16.238353446197507,16.07255409288406,16.31235344619751,16.068954092884063C16.386253446197507,16.063454092884065,16.453053446197508,16.027454092884064,16.49635344619751,15.967854092884064L16.532453446197508,15.919154092884064C16.539653446197512,15.908354092884064,16.54685344619751,15.897554092884064,16.55225344619751,15.886654092884063L18.26265344619751,13.965254092884063C18.35465344619751,13.862354092884063,18.35645344619751,13.707254092884064,18.26805344619751,13.600754092884063L18.23375344619751,13.561064092884063C18.222953446197508,13.552044092884064,18.213953446197507,13.543024092884064,18.20675344619751,13.535804092884064ZM17.67445344619751,3.6920542305340636C18.36005344619751,3.693858412884064,18.91755344619751,4.249554092884064,18.919353446197512,4.936954092884063L18.919353446197512,8.673464092884064C18.91755344619751,9.360874092884064,18.361853446197507,9.916564092884064,17.67445344619751,9.918374092884065L5.220053446197509,9.918374092884065C4.53265344619751,9.916564092884064,3.97695762619751,9.360874092884064,3.9751534461975098,8.673464092884064L3.9751534461975098,4.936954092884063C3.97695762619751,4.251358092884064,4.53265344619751,3.693858272884064,5.220053446197509,3.6920540928840637L17.67445344619751,3.6920542305340636ZM7.08921344619751,4.936954092884063C6.05720344619751,4.936954092884063,5.220053446197509,5.774104092884064,5.220053446197509,6.806114092884064C5.220053446197509,7.838124092884064,6.05720344619751,8.675274092884063,7.08921344619751,8.675274092884063C8.12122344619751,8.675274092884063,8.95656344619751,7.838124092884064,8.95656344619751,6.807914092884063C8.95656344619751,5.772304092884063,8.119413446197509,4.936954092884063,7.08921344619751,4.936954092884063ZM12.99077344619751,14.914254092884065C12.77426344619751,13.627814092884064,12.71472344619751,12.761804092884065,12.70029344619751,12.408174092884064L5.220053446197509,12.408174092884064C4.53445744619751,12.409974092884063,3.97695762619751,12.965674092884063,3.9751534461975098,13.653074092884063L3.9751534461975098,17.38955409288406C3.97695762619751,18.075154092884063,4.53265344619751,18.632654092884064,5.220053446197509,18.634454092884063L16.406153446197507,18.634454092884063C16.28705344619751,18.630854092884064,15.727753446197509,18.589354092884065,15.00965344619751,18.201454092884063C14.26095344619751,17.799154092884066,13.301093446197509,16.743654092884064,12.99077344619751,14.914254092884065ZM7.08921344619751,17.391354092884065C6.05720344619751,17.391354092884065,5.220053446197509,16.554254092884065,5.220053446197509,15.524054092884064C5.220053446197509,14.492054092884064,6.05720344619751,13.654884092884064,7.08921344619751,13.654884092884064C8.12122344619751,13.654884092884064,8.95656344619751,14.492054092884064,8.95656344619751,15.522254092884063C8.95656344619751,16.554254092884065,8.119413446197509,17.38955409288406,7.08921344619751,17.391354092884065Z" fill="#C0D0FF" fill-opacity="1"/></g><g><path d="M19.21761203994751,9.906574241895676Q19.72751203994751,9.396674241895676,19.729412039947512,8.674784241895676L19.729412039947512,8.673464241895676L19.729412039947512,4.935644241895676Q19.72751203994751,4.2139242418956755,19.21681203994751,3.7036752418956755Q18.706612039947508,3.1939526518956756,17.98451203994751,3.1920543909076757L5.52880203994751,3.192056208845676Q4.80708203994751,3.1939503518956758,4.29683303994751,3.7047062418956758Q3.78711032994751,4.214944241895676,3.7852120399475098,4.936954241895675L3.78521388768751,8.674784241895676Q3.78710844994751,9.396674241895676,4.2970100399475095,9.906574241895676Q4.80691203994751,10.416474241895676,5.530112039947509,10.418374241895677L17.985912039947507,10.418364241895675Q18.70771203994751,10.416474241895676,19.21761203994751,9.906574241895676ZM18.729412039947512,8.672154241895676L18.729412039947512,8.673464241895676Q18.728212039947508,8.981834241895676,18.51051203994751,9.199464241895676Q18.292412039947507,9.417564241895676,17.98321203994751,9.418374241895677L5.530112039947509,9.418374241895677Q5.22221203994751,9.417564241895676,5.00412203994751,9.199464241895676Q4.786022039947509,8.981374241895676,4.7852100399475095,8.672154241895676L4.78521203994751,4.936954241895675Q4.786022039947509,4.629954241895676,5.00429203994751,4.411454241895676Q5.2226720399475095,4.192864241895675,5.531422039947509,4.1920532418956755L17.98451203994751,4.192054241895676Q18.29151203994751,4.192864241895675,18.51001203994751,4.411134241895676Q18.72861203994751,4.629514241895675,18.729412039947512,4.938264241895675L18.729412039947512,8.672154241895676ZM19.21761203994751,19.063554241895673Q19.72751203994751,18.553654241895675,19.729412039947512,17.831754241895673L19.729412039947512,17.830454241895676L19.729412039947512,14.092654241895676Q19.72751203994751,13.370854241895676,19.21681203994751,12.860654241895675Q18.706612039947508,12.350934241895676,17.98451203994751,12.349034241895676L5.52880203994751,12.349034241895676Q4.80708203994751,12.350934241895676,4.29683303994751,12.861684241895675Q3.78711032994751,13.371954241895676,3.7852120399475098,14.093954241895675L3.78521388768751,17.831754241895673Q3.78710844994751,18.553654241895675,4.2970100399475095,19.063554241895673Q4.80691203994751,19.573454241895675,5.530112039947509,19.575354241895674L17.985912039947507,19.575354241895674Q18.70771203994751,19.573454241895675,19.21761203994751,19.063554241895673ZM18.729412039947512,17.829154241895676L18.729412039947512,17.830454241895676Q18.728212039947508,18.138854241895675,18.51051203994751,18.356454241895676Q18.292412039947507,18.574554241895676,17.98321203994751,18.575354241895674L5.530112039947509,18.575354241895674Q5.22221203994751,18.574554241895676,5.00412203994751,18.356454241895676Q4.786022039947509,18.138354241895676,4.7852100399475095,17.829154241895676L4.78521203994751,14.093954241895675Q4.786022039947509,13.786954241895677,5.00429203994751,13.568454241895676Q5.2226720399475095,13.349854241895676,5.531422039947509,13.349054241895676L17.98451203994751,13.349054241895676Q18.29151203994751,13.349854241895676,18.51001203994751,13.568154241895675Q18.72861203994751,13.786454241895676,18.729412039947512,14.095254241895676L18.729412039947512,17.829154241895676Z" fill-rule="evenodd" fill="url(#master_svg1_1_01086)" fill-opacity="1"/></g></g></g></g></g></svg>