<?xml version="1.0" encoding="UTF-8"?>
<svg width="32px" height="32px" viewBox="0 0 32 32" version="1.1" xmlns="http://www.w3.org/2000/svg" xmlns:xlink="http://www.w3.org/1999/xlink">
    <!-- Generator: Sketch 59 (86127) - https://sketch.com -->
    <title>shuzihua</title>
    <desc>Created with Sketch.</desc>
    <g id="页面-1" stroke="none" stroke-width="1" fill="none" fill-rule="evenodd">
        <g id="一张图" transform="translate(-650.000000, -17.000000)" fill="#FFFFFF" fill-rule="nonzero">
            <g id="编组-7" transform="translate(626.000000, 17.000000)">
                <g id="shuzihua" transform="translate(24.000000, 0.000000)">
                    <path d="M30.125,0 L1.875,0 C0.84375,0 0,0.84375 0,1.875 L0,22.84375 C0,23.875 0.84375,24.71875 1.875,24.71875 L30.125,24.71875 C31.15625,24.71875 32,23.875 32,22.84375 L32,1.875 C32,0.84375 31.15625,0 30.125,0 Z M29.5625,20.575 C29.5625,21.41375 28.9546875,22.09375 28.2046875,22.09375 L9.0459375,22.09375 L12.3996875,16.45875 L16.7175,18.5396875 C17.2528125,18.798125 17.8759375,18.645 18.265625,18.16 L22.7734375,12.5553125 C23.2084375,12.73375 25.038125,12.7178125 25.71875,12.46875 C27,12 27.25,11.5625 28,10.34375 C28.48875,9.5496875 28.71875,6.84375 26.9375,5.28125 C25.5046875,4.024375 22.4809375,4.1140625 21.1875,5.59375 C19.8940625,7.0734375 19.691875,8.8346875 20.6415625,10.6109375 L16.8534375,15.319375 L12.440625,13.1628125 C11.8390625,12.8696875 11.1359375,13.0996875 10.770625,13.7096875 L5.7871875,22.09375 L3.7640625,22.09375 C3.0140625,22.09375 2.40625,21.41375 2.40625,20.575 L2.40625,3.866875 C2.40625,3.4640625 2.549375,3.0778125 2.8040625,2.793125 C3.0584375,2.508125 3.4040625,2.348125 3.7640625,2.348125 L28.2046875,2.348125 C28.9546875,2.348125 29.5625,3.028125 29.5625,3.866875 L29.5625,20.575 Z M22.125,8.453125 C22.125,7.3053125 23.0553125,6.375 24.203125,6.375 C25.3509375,6.375 26.28125,7.3053125 26.28125,8.453125 C26.28125,9.6009375 25.3509375,10.53125 24.203125,10.53125 C23.0553125,10.53125 22.125,9.6009375 22.125,8.453125 Z M30,30.484375 C30,31.318125 29.318125,32 28.484375,32 L3.53125,32 C2.6978125,32 2.015625,31.3178125 2.015625,30.484375 C2.015625,29.6509375 2.6975,28.96875 3.53125,28.96875 L28.484375,28.96875 C29.318125,28.96875 30,29.650625 30,30.484375 Z" id="形状"></path>
                </g>
            </g>
        </g>
    </g>
</svg>