<svg xmlns="http://www.w3.org/2000/svg" width="20" height="20" viewBox="0 0 20 20"><defs><style>.a{fill:none;}.b{fill:#fff;}</style></defs><rect class="a" width="20" height="20"/><g transform="translate(-61 -149.6)"><path class="b" d="M76.241,153.6H66.16A2.167,2.167,0,0,0,64,155.76v7.2a2.167,2.167,0,0,0,2.16,2.16H76.241a2.167,2.167,0,0,0,2.16-2.16v-7.2A2.167,2.167,0,0,0,76.241,153.6Zm-2.221.72,1.8,1.8h-1.5l-1.8-1.8Zm-2.52,0,1.8,1.8H71.437l-1.8-1.8Zm-2.88,0,1.8,1.8H68.557l-1.8-1.8Zm-3.9,1.44a1.439,1.439,0,0,1,1.072-1.387l1.747,1.747H64.72Zm12.961,7.2a1.442,1.442,0,0,1-1.44,1.44H66.16a1.442,1.442,0,0,1-1.44-1.44v-6.12H77.681Zm0-6.84h-.844l-1.8-1.8h1.2a1.442,1.442,0,0,1,1.44,1.44Z"/><path class="b" d="M400.868,470.723l2.4-1.247a.6.6,0,0,0,0-1.074l-2.175-1.135a.755.755,0,0,0-1.093.675v2.244A.6.6,0,0,0,400.868,470.723Zm-.148-2.816,2.16,1.08-2.16,1.08Z" transform="translate(-330.6 -308.547)"/></g></svg>