<svg xmlns="http://www.w3.org/2000/svg" xmlns:xlink="http://www.w3.org/1999/xlink" fill="none" version="1.1" width="22" height="22" viewBox="0 0 22 22"><defs><linearGradient x1="0.5" y1="0" x2="0.5" y2="1" id="master_svg0_1_00781"><stop offset="0%" stop-color="#5D93FF" stop-opacity="1"/><stop offset="100%" stop-color="#2306FF" stop-opacity="1"/></linearGradient><linearGradient x1="0.5" y1="0" x2="0.5" y2="1" id="master_svg1_1_01086"><stop offset="0%" stop-color="#FFFFFF" stop-opacity="1"/><stop offset="100%" stop-color="#FFFFFF" stop-opacity="0"/></linearGradient></defs><g><g></g><g><g><rect x="2.41064453125" y="2.9287109375" width="16" height="12.65771484375" rx="1" fill="url(#master_svg0_1_00781)" fill-opacity="1"/></g><g><g><path d="M11.92597,16.8616953125L5.6833100000000005,16.8616953125C5.41317,16.8619953125,5.19437,17.0810953125,5.19437,17.3512953125C5.19437,17.6213953125,5.41317,17.8404953125,5.6833100000000005,17.840895312500002L11.92597,17.840895312500002C12.19612,17.8404953125,12.41492,17.6213953125,12.41492,17.3512953125C12.41492,17.0810953125,12.19612,16.8619953125,11.92597,16.8616953125ZM19.3094,13.6683453125L16.9622,12.3130853125C16.7402,12.1858353125,16.467399999999998,12.1858353125,16.2454,12.3130853125L13.89816,13.6683453125C13.67651,13.7965553125,13.53994,14.0330953125,13.53976,14.2891953125L13.53976,16.999695312500002C13.53976,17.2552953125,13.67588,17.492295312499998,13.89816,17.6205953125L16.2454,18.9757953125C16.467399999999998,19.103095312500002,16.7402,19.103095312500002,16.9622,18.9757953125L19.3094,17.6205953125C19.5315,17.4927953125,19.668300000000002,17.255995312499998,19.6678,16.999695312500002L19.6678,14.2891953125C19.6679,14.0330953125,19.5312,13.7964053125,19.3094,13.6683453125ZM16.6038,16.983095312499998C15.8645,16.983095312499998,15.2652,16.3837953125,15.2652,15.6444953125C15.2652,14.9051953125,15.8645,14.3057953125,16.6038,14.3057953125C17.3431,14.3057953125,17.9424,14.9051953125,17.9424,15.6444953125C17.9424,16.3837953125,17.3431,16.983095312499998,16.6038,16.983095312499998ZM16.6038,11.2378753125C16.7624,11.2378753125,16.9221,11.2790053125,17.064,11.361255312499999L19.055799999999998,12.5108853125L19.055799999999998,4.8669353125C19.055799999999998,4.3261163125,18.6174,3.8876953125,18.0766,3.8876953125L4.97924,3.8876953125C4.438421,3.887695166582,3.999999854082,4.3261163125,4,4.8669353125L4,14.4516953125C3.999999854082,14.9925953125,4.438421,15.4309953125,4.97924,15.4309953125L12.66432,15.4309953125L12.66432,13.9023953125C12.66432,13.5733653125,12.8396,13.2688153125,13.12456,13.1043053125L16.1426,11.361255312499999C16.2828,11.280365312499999,16.4419,11.2378153125,16.6038,11.2378753125Z" fill="#C0D0FF" fill-opacity="1"/></g><g><rect x="4.5" y="4.3876953125" width="15" height="9" rx="0.5" stroke="url(#master_svg1_1_01086)" fill-opacity="0" fill="none" stroke-width="1"/></g></g></g></g></svg>