<svg xmlns="http://www.w3.org/2000/svg" width="20" height="20" viewBox="0 0 20 20"><defs><style>.a,.c{fill:none;}.b{fill:#fff;}.c{stroke:#fff;stroke-linecap:round;}</style></defs><rect class="a" width="20" height="20"/><g transform="translate(-180.296 -102.32)"><path class="b" d="M190,121.235a6.718,6.718,0,0,1-6.705-6.705c0-4.577,4.683-8.813,6.109-9.994a.917.917,0,0,1,1.181,0c1.437,1.192,6.109,5.418,6.109,9.994A6.689,6.689,0,0,1,190,121.235Zm0-15.71c-1.192,1.011-5.567,4.992-5.567,9.015a5.567,5.567,0,1,0,11.133,0C195.579,110.507,191.194,106.526,190,105.525Z"/><g transform="translate(0.029 1)"><g transform="translate(192.727 111.093) rotate(90)"><rect class="b" width="0.91" height="5.46" transform="translate(0.455 0)"/><ellipse class="b" cx="0.91" cy="0.91" rx="0.91" ry="0.91" transform="translate(0 0.91)"/><line class="c" y2="5" transform="translate(0.91 0.23)"/><path class="c" d="M.516.024v5" transform="translate(3.11 0.23)"/></g><g transform="translate(192.727 113.822) rotate(90)"><ellipse class="b" cx="0.91" cy="0.91" rx="0.91" ry="0.91" transform="translate(0 2.73)"/></g></g></g></svg>