<svg xmlns="http://www.w3.org/2000/svg" width="20" height="20" viewBox="0 0 20 20"><defs><style>.a,.b{fill:none;}.b{stroke:#fff;}.c{stroke:none;}</style></defs><rect class="a" width="20" height="20"/><g transform="translate(-543.5 -23.213)"><g class="b" transform="translate(545.5 25.213)"><rect class="c" width="16" height="16" rx="2"/><rect class="a" x="0.5" y="0.5" width="15" height="15" rx="1.5"/></g><path class="b" d="M6581.57,4440.451l2.226-2.078s.466-.74,1.462,0,4.261,3.5,4.261,3.5a1.368,1.368,0,0,0,1.866,0c.89-.869.954-.935.954-.935a1.056,1.056,0,0,1,1.568,0,29.862,29.862,0,0,1,2.544,2.546" transform="translate(-6035.5 -4406.787)"/><g class="b" transform="translate(555.5 27.213)"><circle class="c" cx="2" cy="2" r="2"/><circle class="a" cx="2" cy="2" r="1.5"/></g></g></svg>