<svg xmlns="http://www.w3.org/2000/svg" width="20" height="20" viewBox="0 0 20 20"><defs><style>.a{fill:none;}.b{fill:#fff;}</style></defs><rect class="a" width="20" height="20"/><g transform="translate(-180.296 -102.32)"><path class="b" d="M190,121.235a6.718,6.718,0,0,1-6.705-6.705c0-4.577,4.683-8.813,6.109-9.994a.917.917,0,0,1,1.181,0c1.437,1.192,6.109,5.418,6.109,9.994A6.689,6.689,0,0,1,190,121.235Zm0-15.71c-1.192,1.011-5.567,4.992-5.567,9.015a5.567,5.567,0,1,0,11.133,0C195.579,110.507,191.194,106.526,190,105.525Z"/><path class="b" d="M291.639,597.163a.934.934,0,0,1-.17-.021,4.828,4.828,0,0,1-3.257-3.619.566.566,0,1,1,1.107-.234,3.664,3.664,0,0,0,2.491,2.757.57.57,0,0,1,.373.713A.589.589,0,0,1,291.639,597.163Z" transform="translate(-102.723 -478.365)"/></g></svg>