<svg xmlns="http://www.w3.org/2000/svg" width="20" height="20" viewBox="0 0 20 20"><defs><style>.a{fill:none;}.b{fill:#fff;}</style></defs><rect class="a" width="20" height="20"/><g transform="translate(-100.4 -111.995)"><path class="b" d="M171.326,555.073h-6.039a.474.474,0,1,0,0,.947h6.039a.474.474,0,1,0,0-.947Zm7.143-3.088-2.271-1.311a.7.7,0,0,0-.693,0l-2.271,1.311a.694.694,0,0,0-.347.6v2.622a.694.694,0,0,0,.347.6l2.271,1.311a.7.7,0,0,0,.693,0l2.271-1.311a.692.692,0,0,0,.347-.6v-2.622a.693.693,0,0,0-.347-.6Zm-.6,3.076-2.017,1.164-2.017-1.164v-2.329l2.017-1.164,2.017,1.164Z" transform="translate(-61.258 -427.527)"/><path class="b" d="M109.268,126.162a.474.474,0,0,0,0-.947h-5.921v-9.272h12.671v6.074a.474.474,0,1,0,.947,0v-6.169a.854.854,0,0,0-.854-.854H103.254a.855.855,0,0,0-.854.854v9.46a.854.854,0,0,0,.854.854h6.015Zm4.472.207a.853.853,0,1,0,.853-.853A.853.853,0,0,0,113.741,126.37Z" transform="translate(0 0)"/></g></svg>