<svg xmlns="http://www.w3.org/2000/svg" xmlns:xlink="http://www.w3.org/1999/xlink" fill="none" version="1.1" width="22" height="22" viewBox="0 0 22 22"><defs><linearGradient x1="0.5" y1="0" x2="0.5" y2="1" id="master_svg0_1_00781"><stop offset="0%" stop-color="#5D93FF" stop-opacity="1"/><stop offset="100%" stop-color="#2306FF" stop-opacity="1"/></linearGradient><linearGradient x1="0.5" y1="0" x2="0.5" y2="1" id="master_svg1_1_01086"><stop offset="0%" stop-color="#FFFFFF" stop-opacity="1"/><stop offset="100%" stop-color="#FFFFFF" stop-opacity="0"/></linearGradient></defs><g><g></g><g><g><g><path d="M15.5887,2.31494140625Q16.453200000000002,2.31494140625,16.8411,2.8137104062500002Q17.229100000000003,3.31247840625,17.229100000000003,4.11051140625L17.229100000000003,16.34694140625Q17.229100000000003,16.85684140625,16.8079,17.28904140625Q16.386699999999998,17.721341406249998,15.766,17.721341406249998L3.37438,17.721341406249998Q2.842364,17.721341406249998,2.421182,17.27804140625Q2.000000165161,16.83464140625,2,16.23614140625L2,3.77800140625Q2,3.13513940625,2.35468,2.7250404062499998Q2.70936,2.314942397214,3.28571,2.314942397214L15.5887,2.31494140625Z" fill="url(#master_svg0_1_00781)" fill-opacity="1"/></g><g><path d="M8.982756012268066,6.850327166252136Q9.647786012268067,6.850327166252136,10.124386012268065,7.326927166252136Q10.600986012268066,7.803527166252136,10.600986012268066,8.490717166252136Q10.600986012268066,9.155747166252137,10.124386012268065,9.632347166252135Q9.647786012268067,10.108947166252136,8.982756012268066,10.108947166252136Q8.295566012268067,10.108947166252136,7.830046012268067,9.632347166252135Q7.364536012268067,9.155747166252137,7.364536012268067,8.490717166252136Q7.364536012268067,7.803527166252136,7.830046012268067,7.326927166252136Q8.295566012268067,6.850327166252136,8.982756012268066,6.850327166252136ZM18.359636012268066,4.278897166252136Q19.22413601226807,4.278897166252136,19.612036012268067,4.7776661662521365Q20.00003601226807,5.276434166252137,20.00003601226807,6.074467166252136L20.00003601226807,18.310897166252136Q20.00003601226807,18.820797166252135,19.578836012268066,19.252997166252136Q19.157636012268064,19.685297166252134,18.536936012268065,19.685297166252134L6.145316012268067,19.685297166252134Q5.613300012268066,19.685297166252134,5.192118012268066,19.241997166252137Q4.770936177429067,18.798597166252137,4.770936012268066,18.200097166252135L4.770936012268066,5.741957166252137Q4.770936012268066,5.099095166252136,5.1256160122680665,4.688996166252136Q5.480296012268067,4.278898157216136,6.056646012268066,4.278898157216136L18.359636012268066,4.278897166252136ZM18.603436012268066,6.606487166252136Q18.603436012268066,6.229637166252136,18.37073601226807,5.952537166252136Q18.137936012268067,5.675447166252136,17.62803601226807,5.675447166252136L7.054186012268066,5.675447166252136Q6.965516012268067,5.675447166252136,6.810346012268067,5.708697166252136Q6.655166012268067,5.741947166252136,6.499996012268067,5.819537166252136Q6.344826012268067,5.897127166252137,6.233986012268066,6.030127166252136Q6.123156012268066,6.163137166252136,6.123156012268066,6.362637166252137L6.123156012268066,12.303527166252136Q6.300496012268066,12.503037166252136,6.621916012268066,12.780127166252136Q6.943346012268067,13.057217166252137,7.3756160122680665,13.289977166252136Q7.807876012268066,13.522737166252137,8.339896012268067,13.688997166252136Q8.871916012268066,13.855247166252136,9.492606012268066,13.855247166252136Q10.423646012268065,13.855247166252136,11.121926012268066,13.555987166252136Q11.820196012268067,13.256727166252137,12.418716012268067,12.802297166252137Q13.017236012268066,12.347857166252137,13.593596012268067,11.826927166252137Q14.169956012268067,11.305987166252137,14.868236012268067,10.840467166252136Q15.566536012268067,10.374957166252136,16.464236012268067,10.053527166252136Q17.362036012268067,9.732097166252135,18.603436012268066,9.687767166252137L18.603436012268066,6.606487166252136Z" fill="#C0D0FF" fill-opacity="1"/></g><g style="opacity:0.800000011920929;"><path d="M4.270936012268066,5.741957166252137L4.270936012268066,18.200097166252135Q4.270936012268066,18.998197166252137,4.829618512268066,19.586297166252137Q5.398644012268067,20.185297166252134,6.145316012268067,20.185297166252134L18.536936012268065,20.185297166252134Q19.368536012268066,20.185297166252134,19.936936012268067,19.601997166252136Q20.50003601226807,19.024097166252137,20.50003601226807,18.310897166252136L20.50003601226807,6.074467166252136Q20.50003601226807,5.104881166252136,20.006736012268064,4.470695166252137Q19.468636012268064,3.7788971662521362,18.359636012268066,3.7788971662521362L6.056646012268066,3.7788981662521364Q5.251670012268066,3.7788981662521364,4.747434312268067,4.361920666252137Q4.270936012268066,4.9128711662521365,4.270936012268066,5.741957166252137ZM5.554618012268066,18.897597166252137Q5.270936012268066,18.598997166252136,5.270936012268066,18.200097166252135L5.270936012268066,5.741957166252137Q5.270936012268066,5.2853171662521365,5.503797012268066,5.016073166252136Q5.708921012268067,4.778898166252136,6.056646012268066,4.778898166252136L18.359636012268066,4.778897166252136Q18.979636012268067,4.778897166252136,19.217436012268067,5.084637166252136Q19.50003601226807,5.447987166252136,19.50003601226807,6.074467166252136L19.50003601226807,18.310897166252136Q19.50003601226807,18.617497166252136,19.220736012268066,18.904097166252136Q18.94673601226807,19.185297166252134,18.536936012268065,19.185297166252134L6.145316012268067,19.185297166252134Q5.827956012268066,19.185297166252134,5.554618012268066,18.897597166252137Z" fill-rule="evenodd" fill="url(#master_svg1_1_01086)" fill-opacity="1"/></g></g></g></g></svg>